0
SECTION
2
HEADER
9
$INSUNITS
70
4
0
ENDSEC
0
SECTION
2
ENTITIES
0
LINE
8
PLAN
420
11842740
10
10000.000
20
68000.000
11
10000.000
21
32000.000
0
LINE
8
PLAN
420
11842740
10
13000.000
20
68000.000
11
13000.000
21
32000.000
0
LINE
8
PLAN
420
11842740
10
16000.000
20
68000.000
11
16000.000
21
32000.000
0
LINE
8
PLAN
420
11842740
10
19000.000
20
68000.000
11
19000.000
21
32000.000
0
LINE
8
PLAN
420
11842740
10
22000.000
20
68000.000
11
22000.000
21
32000.000
0
LINE
8
PLAN
420
11842740
10
25000.000
20
68000.000
11
25000.000
21
32000.000
0
LINE
8
PLAN
420
11842740
10
28000.000
20
68000.000
11
28000.000
21
32000.000
0
LINE
8
PLAN
420
11842740
10
31000.000
20
68000.000
11
31000.000
21
32000.000
0
LINE
8
PLAN
420
11842740
10
34000.000
20
68000.000
11
34000.000
21
32000.000
0
LINE
8
PLAN
420
11842740
10
37000.000
20
68000.000
11
37000.000
21
32000.000
0
LINE
8
PLAN
420
11842740
10
40000.000
20
68000.000
11
40000.000
21
32000.000
0
LINE
8
PLAN
420
11842740
10
43000.000
20
68000.000
11
43000.000
21
32000.000
0
LINE
8
PLAN
420
11842740
10
46000.000
20
68000.000
11
46000.000
21
32000.000
0
LINE
8
PLAN
420
11842740
10
49000.000
20
68000.000
11
49000.000
21
32000.000
0
LINE
8
PLAN
420
11842740
10
52000.000
20
68000.000
11
52000.000
21
32000.000
0
LINE
8
PLAN
420
11842740
10
55000.000
20
68000.000
11
55000.000
21
32000.000
0
LINE
8
PLAN
420
11842740
10
10000.000
20
68000.000
11
55000.000
21
68000.000
0
LINE
8
PLAN
420
11842740
10
10000.000
20
65000.000
11
55000.000
21
65000.000
0
LINE
8
PLAN
420
11842740
10
10000.000
20
62000.000
11
55000.000
21
62000.000
0
LINE
8
PLAN
420
11842740
10
10000.000
20
59000.000
11
55000.000
21
59000.000
0
LINE
8
PLAN
420
11842740
10
10000.000
20
56000.000
11
55000.000
21
56000.000
0
LINE
8
PLAN
420
11842740
10
10000.000
20
53000.000
11
55000.000
21
53000.000
0
LINE
8
PLAN
420
11842740
10
10000.000
20
50000.000
11
55000.000
21
50000.000
0
LINE
8
PLAN
420
11842740
10
10000.000
20
47000.000
11
55000.000
21
47000.000
0
LINE
8
PLAN
420
11842740
10
10000.000
20
44000.000
11
55000.000
21
44000.000
0
LINE
8
PLAN
420
11842740
10
10000.000
20
41000.000
11
55000.000
21
41000.000
0
LINE
8
PLAN
420
11842740
10
10000.000
20
38000.000
11
55000.000
21
38000.000
0
LINE
8
PLAN
420
11842740
10
10000.000
20
35000.000
11
55000.000
21
35000.000
0
LINE
8
PLAN
420
11842740
10
10000.000
20
32000.000
11
55000.000
21
32000.000
0
SOLID
8
FILL
420
2105376
10
9600.000
20
68400.000
11
55400.000
21
68400.000
12
9600.000
22
68000.000
13
55400.000
23
68000.000
0
SOLID
8
FILL
420
2105376
10
9600.000
20
32000.000
11
55400.000
21
32000.000
12
9600.000
22
31600.000
13
55400.000
23
31600.000
0
SOLID
8
FILL
420
2105376
10
9600.000
20
68000.000
11
10000.000
21
68000.000
12
9600.000
22
32000.000
13
10000.000
23
32000.000
0
SOLID
8
FILL
420
2105376
10
55000.000
20
68000.000
11
55400.000
21
68000.000
12
55000.000
22
32000.000
13
55400.000
23
32000.000
0
TEXT
8
TEXT
10
12000.000
20
70000.000
40
2400.000
1
HALLE 3
0
LINE
8
PLAN
420
2105376
10
10000.000
20
73000.000
11
55000.000
21
73000.000
0
LINE
8
PLAN
420
2105376
10
10000.000
20
74000.000
11
10000.000
21
72000.000
0
LINE
8
PLAN
420
2105376
10
9500.000
20
72500.000
11
10500.000
21
73500.000
0
LINE
8
PLAN
420
2105376
10
55000.000
20
74000.000
11
55000.000
21
72000.000
0
LINE
8
PLAN
420
2105376
10
54500.000
20
72500.000
11
55500.000
21
73500.000
0
TEXT
8
TEXT
10
30700.000
20
73600.000
40
1200.000
1
45000
0
LINE
8
PLAN
420
2105376
10
5000.000
20
68000.000
11
5000.000
21
32000.000
0
LINE
8
PLAN
420
2105376
10
4000.000
20
68000.000
11
6000.000
21
68000.000
0
LINE
8
PLAN
420
2105376
10
4500.000
20
67500.000
11
5500.000
21
68500.000
0
LINE
8
PLAN
420
2105376
10
4000.000
20
32000.000
11
6000.000
21
32000.000
0
LINE
8
PLAN
420
2105376
10
4500.000
20
31500.000
11
5500.000
21
32500.000
0
TEXT
8
TEXT
10
3400.000
20
50000.000
40
1200.000
1
36000
50
90
0
ENDSEC
0
EOF